<?xml version="1.0" standalone="no"?> <!DOCTYPE svg PUBLIC "-//W3C//DTD SVG 20010904//EN" "http://www.w3.org/TR/2001/REC-SVG-20010904/DTD/svg10.dtd"> <svg version="1.0" xmlns="http://www.w3.org/2000/svg" width="1500.000000pt" height="1500.000000pt" viewBox="0 0 1500.000000 1500.000000" preserveAspectRatio="xMidYMid meet"> <g transform="translate(0.000000,1500.000000) scale(0.100000,-0.100000)" fill="#4f8f8b" stroke="none"> <path d="M2995 13280 c-49 -4 -103 -13 -118 -19 -16 -6 -44 -11 -63 -11 -20 0 -45 -5 -57 -12 -12 -6 -38 -15 -57 -19 -43 -9 -96 -27 -133 -45 -16 -8 -35 -14 -42 -14 -19 0 -211 -98 -278 -142 -32 -21 -61 -38 -63 -38 -18 0 -185 -139 -265 -221 -95 -95 -219 -248 -219 -268 0 -5 -6 -14 -13 -18 -8 -4 -17 -15 -20 -23 -4 -8 -16 -28 -27 -45 -60 -93 -167 -344 -178 -415 -2 -19 -11 -44 -18 -55 -8 -11 -14 -35 -14 -55 0 -19 -7 -57 -16 -85 -23 -74 -24 -544 0 -631 9 -34 16 -75 16 -91 0 -16 5 -34 12 -41 6 -6 14 -30 18 -54 10 -55 37 -131 76 -211 8 -16 14 -34 14 -42 0 -7 7 -18 15 -25 8 -7 15 -19 15 -26 0 -7 24 -52 53 -100 28 -47 57 -95 63 -106 29 -49 147 -191 224 -268 84 -84 238 -211 273 -223 9 -4 17 -11 17 -17 0 -5 5 -10 11 -10 6 0 31 -13 56 -30 24 -16 50 -30 58 -30 8 0 16 -4 19 -9 6 -8 40 -26 131 -65 58 -26 111 -45 165 -62 30 -9 69 -21 85 -26 17 -6 55 -14 85 -18 30 -5 71 -14 90 -20 22 -7 126 -12 290 -12 209 0 263 3 299 16 24 9 59 16 78 16 19 0 43 5 54 10 10 6 38 14 61 19 43 9 88 24 143 47 17 7 50 20 75 29 25 9 52 21 60 26 8 5 22 12 30 15 8 3 22 10 30 15 8 5 24 14 35 19 11 6 34 19 50 30 17 11 37 23 45 27 8 3 31 19 51 35 20 15 41 28 47 28 6 0 12 4 14 9 2 5 35 32 73 62 39 29 101 85 138 124 63 65 235 282 250 315 4 8 16 29 26 45 34 53 107 205 134 280 33 91 39 112 46 145 4 19 13 51 19 70 35 114 43 189 43 426 0 185 -4 250 -16 289 -8 28 -15 62 -15 76 0 15 -7 43 -15 62 -8 20 -15 49 -15 64 0 15 -7 37 -15 47 -8 11 -15 28 -15 38 0 9 -7 34 -16 55 -9 21 -22 52 -28 68 -20 48 -48 109 -57 125 -5 8 -13 24 -18 35 -5 11 -21 37 -35 58 -14 21 -26 39 -26 41 0 8 -79 117 -132 183 -79 98 -172 191 -248 249 -36 27 -69 54 -75 60 -5 6 -42 31 -80 55 -39 24 -79 50 -90 56 -38 24 -224 113 -235 113 -7 0 -24 6 -38 14 -34 17 -86 35 -132 46 -19 5 -53 13 -75 19 -141 34 -194 41 -360 45 -99 2 -220 1 -270 -4z"/> <path d="M7985 12421 c-223 -39 -394 -114 -575 -252 -77 -59 -4786 -4766 -4897 -4894 -33 -38 -73 -92 -89 -120 -16 -27 -34 -59 -41 -70 -7 -11 -15 -27 -19 -35 -16 -38 -38 -87 -51 -112 -7 -14 -13 -33 -13 -42 0 -8 -6 -30 -14 -48 -24 -58 -37 -120 -51 -256 -11 -108 -11 -156 -1 -265 7 -73 18 -142 24 -154 7 -12 12 -32 12 -45 0 -37 67 -214 101 -268 5 -8 14 -24 19 -35 6 -11 18 -32 28 -46 9 -15 29 -46 44 -70 15 -24 81 -96 145 -160 118 -116 248 -213 348 -259 28 -12 59 -27 70 -33 11 -6 36 -14 55 -18 33 -7 55 -14 140 -45 118 -42 509 -40 638 5 66 23 98 33 127 40 17 4 55 19 85 33 30 14 62 28 70 32 8 3 29 15 45 26 17 11 37 23 45 27 54 24 190 151 608 567 260 259 480 475 490 480 9 6 56 10 104 10 l87 0 48 -40 c90 -76 82 106 85 -1805 3 -1413 5 -1699 17 -1724 8 -16 17 -48 21 -70 9 -46 27 -98 46 -137 8 -14 14 -33 14 -41 0 -8 7 -20 15 -27 8 -7 15 -19 15 -26 0 -8 12 -33 27 -57 15 -23 36 -58 47 -77 50 -92 170 -224 279 -307 34 -26 64 -50 67 -53 11 -12 95 -64 127 -79 11 -5 24 -15 28 -20 3 -6 13 -11 22 -11 9 0 24 -6 32 -13 9 -7 43 -21 76 -31 33 -10 73 -24 88 -32 16 -8 39 -14 52 -14 12 0 42 -7 66 -16 64 -24 476 -24 531 0 21 9 50 16 66 16 15 0 37 7 48 15 10 8 31 15 45 15 14 0 34 7 45 15 10 8 29 15 40 15 12 0 27 7 34 15 7 8 19 15 27 15 8 0 35 14 60 30 24 17 48 30 53 30 5 0 25 13 43 30 19 16 39 30 45 30 6 0 52 39 102 86 86 82 204 228 246 304 10 19 24 42 30 50 5 8 18 35 28 60 19 46 31 74 60 143 9 21 16 51 16 68 0 16 6 42 14 57 30 59 35 336 35 1817 -1 809 2 1488 6 1510 10 65 36 117 79 164 57 60 103 87 161 94 28 4 723 6 1545 6 1683 0 1722 2 1905 63 17 5 44 13 60 17 17 4 39 13 50 19 11 6 40 20 65 32 25 12 59 30 75 41 17 10 39 23 50 29 42 21 153 106 214 164 88 84 241 288 241 321 0 8 4 16 9 19 13 8 51 89 51 107 0 8 5 20 12 27 12 12 33 76 47 147 5 22 13 53 20 68 18 44 14 485 -4 517 -8 14 -14 41 -15 61 0 19 -7 44 -15 55 -8 10 -15 29 -15 41 0 12 -6 34 -14 50 -15 29 -40 87 -50 113 -4 8 -15 29 -26 45 -11 17 -23 37 -27 45 -3 8 -12 19 -20 23 -7 4 -13 17 -13 27 0 10 -6 23 -13 27 -7 4 -35 37 -62 73 -72 95 -224 235 -285 263 -8 4 -28 16 -45 27 -16 11 -37 22 -45 26 -8 3 -22 9 -30 14 -75 45 -207 97 -275 109 -22 4 -51 14 -65 22 -21 12 -260 14 -1650 16 -1049 2 -1640 6 -1667 13 -23 5 -57 10 -76 10 -42 0 -107 45 -143 99 -21 33 -26 52 -27 113 -2 63 1 78 21 103 13 17 224 233 470 480 246 248 458 464 472 480 27 32 81 110 93 135 4 8 18 35 32 59 14 24 25 50 25 56 0 7 6 18 14 24 8 6 16 24 19 39 3 15 17 61 31 102 45 133 56 213 56 387 0 155 -13 267 -41 348 -6 17 -15 44 -19 60 -20 70 -76 200 -113 260 -92 151 -329 394 -427 438 -8 4 -28 16 -45 26 -45 29 -139 74 -220 104 -195 74 -435 95 -650 58z"/> </g> </svg>